<svg id="svg" version="1.1" xmlns="http://www.w3.org/2000/svg" xmlns:xlink="http://www.w3.org/1999/xlink" width="400" height="404.7449584816133" viewBox="0, 0, 400,404.7449584816133"><g id="svgg"><path id="path0" d="M166.000 121.625 C 164.130 121.833,161.610 122.292,160.400 122.646 C 154.079 124.495,152.429 125.065,150.434 126.085 C 149.235 126.698,148.025 127.200,147.747 127.200 C 147.468 127.200,147.096 127.447,146.920 127.748 C 146.744 128.049,145.835 128.683,144.900 129.156 C 143.965 129.629,143.200 130.193,143.200 130.408 C 143.200 130.624,143.008 130.800,142.773 130.800 C 142.397 130.800,139.732 132.610,139.200 133.227 C 139.090 133.355,137.920 134.431,136.600 135.618 C 135.280 136.806,134.241 137.905,134.291 138.061 C 134.341 138.217,133.832 138.807,133.160 139.372 C 132.488 139.938,132.058 140.400,132.205 140.400 C 132.433 140.400,131.822 141.251,129.977 143.502 C 129.475 144.113,127.600 147.810,127.600 148.187 C 127.600 148.335,127.345 148.712,127.034 149.023 C 126.723 149.335,126.156 150.537,125.775 151.695 C 125.394 152.853,124.930 153.900,124.745 154.021 C 124.348 154.282,122.815 161.301,122.806 162.900 C 122.803 163.505,122.659 164.000,122.486 164.000 C 122.090 164.000,122.071 164.280,122.038 170.600 C 122.008 176.402,122.151 179.504,122.491 180.400 C 122.616 180.730,122.937 182.350,123.204 184.000 C 123.650 186.748,125.861 193.364,126.813 194.800 C 127.032 195.130,127.756 196.525,128.422 197.900 C 129.088 199.275,129.764 200.400,129.925 200.400 C 130.086 200.400,130.563 201.040,130.984 201.823 C 131.406 202.605,132.192 203.730,132.731 204.323 C 135.192 207.028,137.658 209.600,137.792 209.600 C 137.872 209.600,138.537 210.155,139.269 210.834 C 141.803 213.185,142.058 213.400,142.328 213.417 C 142.478 213.426,143.590 214.069,144.800 214.844 C 146.010 215.620,147.583 216.488,148.295 216.774 C 149.007 217.059,149.517 217.410,149.429 217.553 C 149.341 217.696,150.603 218.250,152.234 218.785 C 153.865 219.319,155.200 219.871,155.200 220.011 C 155.200 220.152,155.425 220.287,155.700 220.313 C 155.975 220.338,157.640 220.724,159.400 221.171 C 161.160 221.617,164.445 222.104,166.700 222.252 C 168.955 222.400,170.800 222.674,170.800 222.861 C 170.800 223.047,172.071 223.200,173.624 223.200 C 175.177 223.200,176.352 223.046,176.235 222.857 C 176.118 222.668,177.863 222.415,180.112 222.293 C 184.388 222.063,190.256 221.012,191.082 220.330 C 191.348 220.111,191.753 220.047,191.982 220.189 C 192.212 220.331,192.400 220.302,192.400 220.124 C 192.400 219.945,193.505 219.447,194.856 219.015 C 196.207 218.583,197.545 217.998,197.828 217.715 C 198.380 217.163,200.646 217.003,200.867 217.500 C 201.047 217.906,204.711 219.272,206.202 219.489 C 207.826 219.726,209.200 218.520,209.200 216.858 C 209.200 215.554,208.180 214.000,207.325 214.000 C 206.792 214.000,203.932 212.751,203.600 212.372 C 203.490 212.247,202.545 211.736,201.500 211.237 C 200.455 210.737,199.600 210.173,199.600 209.983 C 199.600 209.793,199.002 209.354,198.270 209.007 C 197.539 208.660,196.234 207.749,195.370 206.982 C 192.436 204.378,189.600 201.515,189.600 201.157 C 189.600 200.644,187.020 200.717,185.819 201.264 C 184.170 202.016,184.352 204.831,186.160 206.537 C 189.593 209.774,188.427 215.208,184.048 216.387 C 177.799 218.070,160.798 216.968,157.076 214.639 C 156.594 214.337,155.255 213.786,154.100 213.413 C 152.945 213.041,152.000 212.590,152.000 212.412 C 152.000 212.234,151.145 211.687,150.100 211.198 C 149.055 210.708,148.110 210.192,148.000 210.050 C 147.890 209.908,147.045 209.303,146.122 208.705 C 144.285 207.515,139.412 202.776,137.200 200.029 C 136.430 199.073,135.575 198.058,135.300 197.774 C 135.025 197.490,134.800 197.162,134.800 197.046 C 134.800 196.930,134.274 195.943,133.631 194.853 C 132.988 193.763,132.568 192.765,132.698 192.635 C 132.827 192.506,132.730 192.400,132.482 192.400 C 132.234 192.400,131.773 191.533,131.459 190.473 C 131.144 189.413,130.524 187.748,130.082 186.773 C 127.468 181.013,127.408 160.845,129.994 157.400 C 130.159 157.180,130.595 156.078,130.962 154.951 C 131.330 153.825,132.253 151.868,133.015 150.603 C 133.777 149.338,134.400 148.158,134.400 147.980 C 134.400 147.802,134.625 147.419,134.900 147.129 C 135.175 146.838,135.890 145.878,136.489 144.995 C 137.929 142.871,142.640 137.980,144.400 136.780 C 145.170 136.256,146.042 135.591,146.338 135.304 C 146.634 135.016,147.444 134.488,148.138 134.129 C 148.832 133.771,149.580 133.261,149.800 132.996 C 150.020 132.731,151.010 132.204,152.000 131.824 C 152.990 131.444,154.070 130.906,154.400 130.628 C 154.730 130.351,156.350 129.719,158.000 129.224 C 159.650 128.729,161.360 128.170,161.800 127.982 C 165.649 126.333,183.675 126.457,185.000 128.141 C 185.220 128.421,185.709 128.766,186.087 128.907 C 188.683 129.881,188.498 135.235,185.775 137.958 C 185.019 138.715,184.400 139.451,184.400 139.595 C 184.400 139.738,183.846 140.473,183.168 141.228 C 182.491 141.983,181.669 143.140,181.342 143.800 C 181.016 144.460,180.137 146.080,179.390 147.400 C 177.587 150.587,177.047 151.815,176.401 154.200 C 176.103 155.300,175.725 156.292,175.561 156.404 C 173.226 158.003,173.229 184.909,175.565 187.763 C 175.761 188.004,176.130 189.010,176.384 190.000 C 176.639 190.990,177.144 192.430,177.507 193.200 C 177.871 193.970,178.130 194.735,178.084 194.900 C 178.038 195.065,178.160 195.200,178.357 195.200 C 178.553 195.200,178.995 195.904,179.339 196.764 C 180.782 200.371,183.790 201.563,185.525 199.216 C 186.429 197.993,186.715 196.000,185.986 196.000 C 185.758 196.000,185.207 195.149,184.761 194.108 C 184.315 193.067,183.800 192.122,183.617 192.008 C 183.332 191.830,181.251 186.154,181.048 185.000 C 181.009 184.780,180.845 184.388,180.683 184.130 C 177.839 179.580,180.097 154.632,183.553 152.422 C 183.743 152.300,184.304 151.255,184.799 150.100 C 185.294 148.945,185.835 148.000,186.001 148.000 C 186.167 148.000,186.519 147.479,186.783 146.842 C 187.046 146.205,187.579 145.344,187.965 144.929 C 188.352 144.514,189.238 143.388,189.934 142.427 C 190.630 141.466,191.200 140.821,191.200 140.994 C 191.200 141.167,191.579 140.826,192.042 140.237 C 193.010 139.007,198.177 134.800,198.720 134.800 C 198.920 134.800,199.600 134.321,200.232 133.735 C 200.864 133.150,202.465 132.232,203.791 131.695 C 205.116 131.159,206.394 130.562,206.631 130.368 C 206.868 130.175,208.308 129.644,209.831 129.189 C 211.354 128.734,212.960 128.200,213.400 128.001 C 216.785 126.471,237.200 126.455,237.200 127.982 C 237.200 128.139,237.425 128.284,237.700 128.305 C 238.639 128.376,242.992 129.675,243.797 130.124 C 244.239 130.370,244.690 130.586,244.800 130.604 C 245.973 130.793,252.298 134.770,253.834 136.284 C 255.954 138.373,258.923 137.912,259.126 135.462 C 259.283 133.563,258.515 132.341,256.428 131.168 C 255.551 130.675,254.929 130.116,255.046 129.926 C 255.163 129.736,255.111 129.625,254.930 129.679 C 254.619 129.772,252.432 128.501,252.000 127.975 C 251.501 127.368,244.320 124.382,241.800 123.733 C 240.260 123.337,238.910 122.895,238.800 122.751 C 237.410 120.933,215.342 120.962,211.400 122.787 C 210.960 122.990,209.264 123.522,207.631 123.967 C 205.997 124.413,204.557 124.918,204.431 125.089 C 204.304 125.260,203.930 125.472,203.600 125.561 C 203.270 125.649,202.217 125.991,201.260 126.321 C 199.503 126.927,195.200 126.160,195.200 125.240 C 195.200 125.065,193.625 124.521,191.700 124.032 C 189.775 123.543,187.840 122.983,187.400 122.787 C 184.765 121.613,172.231 120.933,166.000 121.625 M253.238 208.700 C 252.633 209.305,251.465 210.160,250.642 210.600 C 249.819 211.040,248.841 211.682,248.468 212.027 C 247.629 212.803,243.202 214.860,243.194 214.478 C 243.191 214.325,243.052 214.414,242.886 214.675 C 242.559 215.188,236.081 217.184,234.416 217.284 C 233.857 217.318,233.154 217.532,232.853 217.761 C 232.100 218.333,218.034 218.298,217.670 217.724 C 216.915 216.530,212.629 216.694,211.699 217.952 C 209.471 220.965,210.834 222.046,218.400 223.267 C 221.474 223.763,233.525 223.473,234.636 222.876 C 235.056 222.651,237.020 222.152,239.000 221.767 C 240.980 221.382,242.870 220.937,243.200 220.778 C 243.530 220.619,244.430 220.218,245.200 219.888 C 245.970 219.557,247.320 218.910,248.200 218.449 C 249.080 217.989,250.494 217.269,251.342 216.851 C 256.599 214.258,259.813 209.973,257.920 208.080 C 257.003 207.163,254.435 207.504,253.238 208.700 M182.800 241.210 L 182.800 244.021 181.586 243.393 C 180.449 242.805,176.800 242.648,176.800 243.187 C 176.800 243.318,176.262 243.628,175.604 243.876 C 174.878 244.150,174.246 244.774,173.996 245.464 C 173.769 246.089,173.392 246.977,173.158 247.437 C 172.233 249.255,174.073 253.746,176.010 254.399 C 177.669 254.959,181.674 254.588,182.233 253.824 C 182.786 253.066,182.800 253.069,182.800 253.924 C 182.800 254.631,183.032 254.800,184.000 254.800 L 185.200 254.800 185.200 246.600 L 185.200 238.400 184.000 238.400 L 182.800 238.400 182.800 241.210 M218.000 240.225 C 218.000 241.653,220.524 241.537,220.728 240.100 C 220.840 239.311,220.680 239.200,219.428 239.200 C 218.162 239.200,218.000 239.316,218.000 240.225 M124.000 248.800 L 124.000 254.800 125.200 254.800 L 126.400 254.800 126.400 251.219 C 126.400 247.222,126.816 245.903,128.290 245.232 C 130.672 244.147,131.600 245.837,131.600 251.260 L 131.600 254.800 132.800 254.800 L 134.000 254.800 134.005 251.300 C 134.012 246.898,134.229 246.109,135.631 245.384 C 138.360 243.973,139.200 245.200,139.200 250.600 L 139.200 254.800 140.400 254.800 L 141.600 254.800 141.600 250.014 C 141.600 243.217,139.380 241.163,134.644 243.578 C 133.167 244.331,131.600 244.087,131.600 243.104 C 131.600 242.607,128.459 242.759,127.542 243.300 C 126.865 243.700,126.659 243.700,126.514 243.300 C 126.415 243.025,125.808 242.800,125.167 242.800 L 124.000 242.800 124.000 248.800 M154.100 243.344 C 153.605 243.589,153.200 244.101,153.200 244.481 C 153.200 245.246,154.651 246.234,154.868 245.616 C 155.180 244.723,158.280 244.680,159.156 245.556 C 160.522 246.922,160.188 247.200,157.187 247.200 C 153.695 247.200,152.000 248.494,152.000 251.159 C 152.000 254.083,153.285 254.794,158.497 254.752 L 162.897 254.717 162.725 250.204 C 162.546 245.542,161.919 243.600,160.591 243.600 C 160.266 243.600,160.000 243.420,160.000 243.200 C 160.000 242.661,155.244 242.777,154.100 243.344 M199.200 243.204 C 199.200 243.351,198.740 243.681,198.179 243.937 C 197.617 244.193,196.970 244.942,196.740 245.601 C 196.510 246.260,196.159 246.800,195.961 246.800 C 194.311 246.800,196.414 252.649,198.535 253.960 C 201.090 255.539,206.786 254.542,206.797 252.514 C 206.802 251.599,205.208 251.069,204.467 251.738 C 203.280 252.810,200.543 252.765,199.261 251.653 C 197.632 250.240,198.153 250.000,202.856 250.000 L 207.312 250.000 207.086 247.808 C 206.856 245.582,205.469 243.600,204.142 243.600 C 203.844 243.600,203.600 243.411,203.600 243.179 C 203.600 242.926,202.728 242.794,201.400 242.848 C 200.190 242.897,199.200 243.057,199.200 243.204 M218.000 248.773 L 218.000 254.800 219.211 254.800 L 220.421 254.800 220.311 248.900 L 220.200 243.000 219.100 242.873 L 218.000 242.747 218.000 248.773 M232.400 248.827 L 232.400 254.853 233.500 254.727 C 234.585 254.602,234.603 254.555,234.801 251.200 C 234.972 248.304,235.911 245.086,236.464 245.503 C 236.539 245.560,237.192 245.383,237.916 245.109 C 239.732 244.424,239.575 243.055,237.659 242.872 C 236.921 242.801,236.411 242.894,236.525 243.078 C 236.639 243.262,236.297 243.618,235.766 243.869 C 234.923 244.267,234.800 244.228,234.800 243.562 C 234.800 242.982,234.514 242.800,233.600 242.800 L 232.400 242.800 232.400 248.827 M250.400 243.262 C 250.400 243.448,250.040 243.600,249.600 243.600 C 248.256 243.600,248.749 245.730,250.155 246.000 C 250.351 246.038,250.659 245.828,250.841 245.534 C 251.379 244.664,254.749 244.842,255.432 245.776 C 256.358 247.042,256.129 247.200,253.374 247.200 C 248.800 247.200,247.168 249.059,248.239 253.051 C 248.660 254.617,253.181 255.481,255.226 254.386 C 255.773 254.093,256.000 254.101,256.000 254.411 C 256.000 254.666,256.546 254.798,257.300 254.725 L 258.600 254.600 258.600 250.600 C 258.600 245.459,258.382 244.762,256.439 243.670 C 254.840 242.772,250.400 242.471,250.400 243.262 M180.593 245.200 C 181.221 245.200,182.808 247.757,182.781 248.723 C 182.683 252.179,177.325 254.293,176.515 251.195 C 176.400 250.758,176.148 250.400,175.953 250.400 C 175.759 250.400,175.600 249.708,175.600 248.862 C 175.600 246.556,177.697 244.522,179.533 245.048 C 179.826 245.131,180.303 245.200,180.593 245.200 M203.570 245.916 C 205.345 247.645,205.007 248.000,201.587 248.000 C 199.729 248.000,198.400 247.833,198.400 247.600 C 198.400 247.380,198.580 247.200,198.800 247.200 C 199.020 247.200,199.200 246.940,199.200 246.623 C 199.200 244.944,202.092 244.476,203.570 245.916 M159.114 249.443 C 160.241 249.668,160.301 249.765,159.944 250.788 C 159.279 252.696,156.784 253.363,155.178 252.062 C 153.172 250.438,155.696 248.759,159.114 249.443 M255.868 249.734 C 257.034 250.901,253.933 253.216,252.086 252.558 C 249.182 251.522,250.635 248.942,253.915 249.312 C 254.864 249.419,255.742 249.609,255.868 249.734 M164.400 272.600 L 164.400 280.800 165.600 280.800 L 166.800 280.800 166.800 272.600 L 166.800 264.400 165.600 264.400 L 164.400 264.400 164.400 272.600 M170.000 266.200 C 170.000 267.144,170.131 267.238,171.300 267.125 C 172.292 267.030,172.600 266.810,172.600 266.200 C 172.600 265.590,172.292 265.370,171.300 265.275 C 170.131 265.162,170.000 265.256,170.000 266.200 M176.400 267.373 C 176.400 269.055,176.321 269.200,175.400 269.200 C 174.667 269.200,174.400 269.413,174.400 270.000 C 174.400 270.587,174.667 270.800,175.400 270.800 L 176.400 270.800 176.400 275.138 C 176.400 280.327,176.693 280.800,179.905 280.800 C 181.956 280.800,182.919 279.963,182.202 278.804 C 181.850 278.234,180.504 278.301,180.279 278.900 C 179.709 280.421,178.825 277.647,178.813 274.300 L 178.800 270.800 180.600 270.800 C 182.133 270.800,182.400 270.681,182.400 270.000 C 182.400 269.320,182.133 269.200,180.623 269.200 L 178.846 269.200 178.723 267.500 C 178.526 264.779,176.400 264.663,176.400 267.373 M126.400 269.491 C 125.623 269.787,123.799 271.200,124.195 271.200 C 124.362 271.200,124.296 271.443,124.050 271.740 C 123.198 272.767,123.046 275.882,123.758 277.745 C 124.818 280.522,128.308 281.527,132.300 280.205 C 133.162 279.919,133.200 280.002,133.200 282.153 C 133.200 284.383,133.209 284.400,134.400 284.400 L 135.600 284.400 135.600 276.800 L 135.600 269.200 134.400 269.200 C 133.591 269.200,133.200 269.399,133.200 269.810 C 133.200 270.357,133.078 270.357,132.020 269.810 C 130.872 269.217,127.609 269.031,126.400 269.491 M138.000 273.395 C 138.000 280.144,138.579 280.775,144.736 280.731 L 148.800 280.703 148.800 274.951 L 148.800 269.200 147.400 269.200 L 146.000 269.200 145.994 273.100 C 145.988 277.083,145.851 277.657,144.800 278.127 C 144.470 278.274,143.909 278.605,143.552 278.862 C 141.970 280.005,140.841 277.832,140.715 273.400 L 140.600 269.400 139.300 269.275 L 138.000 269.149 138.000 273.395 M152.900 269.482 C 151.841 269.686,151.701 270.854,152.642 271.634 C 153.181 272.082,153.473 272.058,154.474 271.483 C 155.705 270.777,157.200 270.570,157.200 271.105 C 157.200 271.273,157.593 271.588,158.074 271.805 C 159.977 272.665,159.364 273.200,156.476 273.200 C 151.785 273.200,149.337 276.973,152.182 279.818 C 153.258 280.895,156.863 281.222,158.426 280.386 C 158.960 280.100,159.200 280.100,159.200 280.386 C 159.200 280.614,159.830 280.800,160.600 280.800 L 162.000 280.800 161.997 277.900 C 161.987 269.701,160.225 268.071,152.900 269.482 M170.000 275.000 L 170.000 280.800 171.200 280.800 L 172.400 280.800 172.400 275.000 L 172.400 269.200 171.200 269.200 L 170.000 269.200 170.000 275.000 M183.200 269.429 C 183.200 269.554,183.447 269.904,183.749 270.206 C 184.051 270.509,184.541 271.576,184.837 272.578 C 185.133 273.580,185.526 274.400,185.711 274.400 C 185.896 274.400,185.936 274.580,185.800 274.800 C 185.664 275.020,185.719 275.200,185.922 275.200 C 186.238 275.200,187.748 278.492,187.787 279.267 C 187.794 279.413,187.928 279.661,188.084 279.817 C 188.888 280.622,187.169 282.431,185.838 282.181 C 184.458 281.922,183.784 282.570,184.228 283.729 C 184.475 284.374,188.400 284.647,188.400 284.020 C 188.400 283.789,188.596 283.600,188.836 283.600 C 189.454 283.600,190.771 281.929,190.787 281.124 C 190.794 280.752,190.957 280.350,191.148 280.232 C 191.339 280.114,191.913 278.888,192.423 277.508 C 192.932 276.129,193.541 274.868,193.775 274.706 C 194.009 274.544,194.061 274.409,193.892 274.406 C 193.722 274.403,193.922 273.725,194.335 272.900 C 195.821 269.933,195.805 269.200,194.256 269.200 C 192.841 269.200,192.407 269.770,191.785 272.444 C 191.197 274.967,189.715 277.394,189.393 276.362 C 189.227 275.833,188.976 275.310,188.833 275.200 C 188.690 275.090,188.069 273.695,187.452 272.100 L 186.329 269.200 184.765 269.200 C 183.904 269.200,183.200 269.303,183.200 269.429 M217.200 269.720 C 215.350 270.582,214.400 272.398,214.400 275.073 C 214.400 276.733,215.384 279.200,216.046 279.200 C 216.314 279.200,216.410 279.323,216.260 279.473 C 215.753 279.980,218.475 280.800,220.666 280.800 C 224.061 280.800,226.654 278.960,224.983 277.738 C 224.238 277.193,223.512 277.375,221.861 278.520 C 219.528 280.138,216.507 277.273,217.218 274.118 C 217.581 272.511,218.733 271.089,219.449 271.363 C 219.724 271.469,220.005 271.387,220.074 271.181 C 220.217 270.755,223.200 271.998,223.200 272.483 C 223.200 273.105,224.616 272.787,225.067 272.064 C 226.395 269.938,220.502 268.182,217.200 269.720 M228.300 269.476 C 227.472 269.692,227.337 271.524,228.126 271.827 C 228.416 271.938,229.181 271.754,229.826 271.417 C 231.420 270.586,232.494 270.644,233.746 271.629 C 235.343 272.885,235.071 273.102,231.700 273.263 C 227.274 273.473,225.441 275.584,226.873 278.821 C 227.591 280.442,228.794 280.791,233.500 280.744 L 237.600 280.703 237.600 277.018 C 237.600 274.991,237.465 273.198,237.300 273.033 C 237.135 272.868,236.985 272.613,236.966 272.467 C 236.622 269.725,232.624 268.346,228.300 269.476 M240.400 275.000 L 240.400 280.800 241.600 280.800 L 242.800 280.800 242.814 277.500 C 242.833 273.152,243.297 272.361,246.733 270.815 C 247.245 270.584,247.592 270.171,247.502 269.898 C 247.257 269.151,245.349 269.067,243.995 269.742 C 242.974 270.252,242.800 270.256,242.800 269.769 C 242.800 269.403,242.371 269.200,241.600 269.200 L 240.400 269.200 240.400 275.000 M249.948 269.803 C 246.683 271.578,246.956 278.419,250.362 280.181 C 253.419 281.761,261.003 279.642,258.337 277.953 C 257.600 277.485,256.101 277.514,255.800 278.000 C 255.664 278.220,255.218 278.400,254.810 278.400 C 254.401 278.400,253.962 278.625,253.833 278.900 C 253.647 279.300,253.553 279.300,253.367 278.900 C 253.238 278.625,252.801 278.400,252.396 278.400 C 251.990 278.400,251.268 277.905,250.792 277.300 L 249.925 276.200 254.412 276.086 L 258.899 275.973 258.714 274.047 C 258.317 269.910,253.788 267.717,249.948 269.803 M131.628 272.428 C 133.751 274.508,133.035 278.400,130.530 278.400 C 130.239 278.400,130.000 278.580,130.000 278.800 C 130.000 279.406,128.963 279.279,128.404 278.604 C 128.132 278.277,127.762 278.100,127.582 278.211 C 126.962 278.594,126.000 276.619,126.000 274.965 C 126.000 273.086,127.259 271.094,128.215 271.461 C 128.537 271.585,128.800 271.486,128.800 271.243 C 128.800 270.338,130.017 270.848,131.628 272.428 M253.817 271.227 C 253.962 271.462,254.318 271.564,254.607 271.453 C 255.052 271.282,256.400 273.318,256.400 274.160 C 256.400 274.292,254.955 274.400,253.190 274.400 L 249.979 274.400 250.624 273.154 C 250.978 272.468,251.613 271.817,252.034 271.707 C 252.455 271.597,252.800 271.348,252.800 271.153 C 252.800 270.660,253.498 270.711,253.817 271.227 M159.068 275.734 C 159.610 276.277,158.752 277.925,157.803 278.163 C 157.252 278.302,156.800 278.592,156.800 278.808 C 156.800 279.023,156.440 279.200,156.000 279.200 C 155.560 279.200,155.200 279.032,155.200 278.827 C 155.200 278.622,154.840 278.340,154.400 278.200 C 153.332 277.861,153.385 276.601,154.500 275.795 C 155.356 275.177,158.469 275.135,159.068 275.734 M233.550 275.450 C 235.025 275.745,235.210 276.739,233.951 277.612 C 233.484 277.935,232.867 278.425,232.580 278.700 C 231.944 279.308,231.326 279.336,230.683 278.786 C 230.417 278.559,229.840 278.109,229.400 277.787 C 228.613 277.211,228.618 277.186,229.722 276.201 C 230.897 275.153,231.487 275.037,233.550 275.450 " stroke="none" fill="#345e54" fill-rule="evenodd"></path><path id="path1" d="M265.000 161.848 C 261.341 162.764,258.709 164.851,257.943 167.447 C 257.658 168.411,257.285 169.200,257.113 169.200 C 256.941 169.200,256.800 170.550,256.800 172.200 C 256.800 173.850,256.966 175.200,257.168 175.200 C 257.371 175.200,257.650 175.719,257.790 176.353 C 258.103 177.782,260.514 180.657,261.711 181.030 C 262.200 181.183,262.715 181.487,262.856 181.707 C 263.648 182.939,269.006 182.789,272.086 181.448 C 276.002 179.743,279.378 172.609,277.598 169.800 C 277.458 169.580,277.107 168.647,276.817 167.727 C 275.551 163.708,269.532 160.714,265.000 161.848 " stroke="none" fill="#0c4484" fill-rule="evenodd"></path><path id="path2" d="M121.724 172.200 C 121.726 173.520,121.801 174.012,121.890 173.293 C 121.979 172.574,121.977 171.494,121.886 170.893 C 121.795 170.292,121.722 170.880,121.724 172.200 " stroke="none" fill="#385460" fill-rule="evenodd"></path><path id="path3" d="M121.724 172.200 C 121.726 173.520,121.801 174.012,121.890 173.293 C 121.979 172.574,121.977 171.494,121.886 170.893 C 121.795 170.292,121.722 170.880,121.724 172.200 " stroke="none" fill="#385460" fill-rule="evenodd"></path><path id="path4" d="M121.724 172.200 C 121.726 173.520,121.801 174.012,121.890 173.293 C 121.979 172.574,121.977 171.494,121.886 170.893 C 121.795 170.292,121.722 170.880,121.724 172.200 " stroke="none" fill="#385460" fill-rule="evenodd"></path></g></svg>